M48
; DRILL file {KiCad (6.0.7)} date Fri Aug 26 02:04:31 2022
; FORMAT={-:-/ absolute / metric / decimal}
; #@! TF.CreationDate,2022-08-26T02:04:31+09:00
; #@! TF.GenerationSoftware,Kicad,Pcbnew,(6.0.7)
; #@! TF.FileFunction,MixedPlating,1,2
FMAT,2
METRIC
; #@! TA.AperFunction,Plated,PTH,ViaDrill
T1C0.300
; #@! TA.AperFunction,Plated,PTH,ComponentDrill
T2C0.700
; #@! TA.AperFunction,Plated,PTH,ComponentDrill
T3C1.575
; #@! TA.AperFunction,NonPlated,NPTH,ComponentDrill
T4C2.642
; #@! TA.AperFunction,NonPlated,NPTH,ComponentDrill
T5C3.810
%
G90
G05
T1
X156.5Y-77.0
X156.5Y-79.0
X156.5Y-81.0
X156.5Y-83.0
X158.5Y-77.0
X158.5Y-79.0
X158.5Y-81.0
X158.5Y-83.0
X160.5Y-81.0
X160.5Y-83.0
X162.5Y-81.0
X162.5Y-83.0
X164.5Y-81.0
X164.5Y-83.0
X166.5Y-77.0
X166.5Y-79.0
X166.5Y-81.0
X166.5Y-83.0
X168.5Y-77.0
X168.5Y-79.0
X168.5Y-81.0
X168.5Y-83.0
T2
X101.6Y-102.0
X142.5Y-69.0
X147.5Y-69.0
X188.5Y-102.0
T3
X108.849Y-102.2
X181.112Y-102.2
T4
X181.112Y-110.074
T5
X117.485Y-110.074
X172.73Y-94.326
T0
M30
