%TF.GenerationSoftware,KiCad,Pcbnew,(6.0.7)*%
%TF.CreationDate,2022-08-26T02:07:21+09:00*%
%TF.ProjectId,CellProtection_S82M1A,43656c6c-5072-46f7-9465-6374696f6e5f,rev?*%
%TF.SameCoordinates,Original*%
%TF.FileFunction,Legend,Top*%
%TF.FilePolarity,Positive*%
%FSLAX46Y46*%
G04 Gerber Fmt 4.6, Leading zero omitted, Abs format (unit mm)*
G04 Created by KiCad (PCBNEW (6.0.7)) date 2022-08-26 02:07:21*
%MOMM*%
%LPD*%
G01*
G04 APERTURE LIST*
%ADD10C,0.150000*%
%ADD11C,0.120000*%
G04 APERTURE END LIST*
D10*
X110738095Y-73052142D02*
X110690476Y-73099761D01*
X110547619Y-73147380D01*
X110452380Y-73147380D01*
X110309523Y-73099761D01*
X110214285Y-73004523D01*
X110166666Y-72909285D01*
X110119047Y-72718809D01*
X110119047Y-72575952D01*
X110166666Y-72385476D01*
X110214285Y-72290238D01*
X110309523Y-72195000D01*
X110452380Y-72147380D01*
X110547619Y-72147380D01*
X110690476Y-72195000D01*
X110738095Y-72242619D01*
X111547619Y-73099761D02*
X111452380Y-73147380D01*
X111261904Y-73147380D01*
X111166666Y-73099761D01*
X111119047Y-73004523D01*
X111119047Y-72623571D01*
X111166666Y-72528333D01*
X111261904Y-72480714D01*
X111452380Y-72480714D01*
X111547619Y-72528333D01*
X111595238Y-72623571D01*
X111595238Y-72718809D01*
X111119047Y-72814047D01*
X112166666Y-73147380D02*
X112071428Y-73099761D01*
X112023809Y-73004523D01*
X112023809Y-72147380D01*
X112690476Y-73147380D02*
X112595238Y-73099761D01*
X112547619Y-73004523D01*
X112547619Y-72147380D01*
X113071428Y-73147380D02*
X113071428Y-72147380D01*
X113452380Y-72147380D01*
X113547619Y-72195000D01*
X113595238Y-72242619D01*
X113642857Y-72337857D01*
X113642857Y-72480714D01*
X113595238Y-72575952D01*
X113547619Y-72623571D01*
X113452380Y-72671190D01*
X113071428Y-72671190D01*
X114071428Y-73147380D02*
X114071428Y-72480714D01*
X114071428Y-72671190D02*
X114119047Y-72575952D01*
X114166666Y-72528333D01*
X114261904Y-72480714D01*
X114357142Y-72480714D01*
X114833333Y-73147380D02*
X114738095Y-73099761D01*
X114690476Y-73052142D01*
X114642857Y-72956904D01*
X114642857Y-72671190D01*
X114690476Y-72575952D01*
X114738095Y-72528333D01*
X114833333Y-72480714D01*
X114976190Y-72480714D01*
X115071428Y-72528333D01*
X115119047Y-72575952D01*
X115166666Y-72671190D01*
X115166666Y-72956904D01*
X115119047Y-73052142D01*
X115071428Y-73099761D01*
X114976190Y-73147380D01*
X114833333Y-73147380D01*
X115452380Y-72480714D02*
X115833333Y-72480714D01*
X115595238Y-72147380D02*
X115595238Y-73004523D01*
X115642857Y-73099761D01*
X115738095Y-73147380D01*
X115833333Y-73147380D01*
X116547619Y-73099761D02*
X116452380Y-73147380D01*
X116261904Y-73147380D01*
X116166666Y-73099761D01*
X116119047Y-73004523D01*
X116119047Y-72623571D01*
X116166666Y-72528333D01*
X116261904Y-72480714D01*
X116452380Y-72480714D01*
X116547619Y-72528333D01*
X116595238Y-72623571D01*
X116595238Y-72718809D01*
X116119047Y-72814047D01*
X117452380Y-73099761D02*
X117357142Y-73147380D01*
X117166666Y-73147380D01*
X117071428Y-73099761D01*
X117023809Y-73052142D01*
X116976190Y-72956904D01*
X116976190Y-72671190D01*
X117023809Y-72575952D01*
X117071428Y-72528333D01*
X117166666Y-72480714D01*
X117357142Y-72480714D01*
X117452380Y-72528333D01*
X117738095Y-72480714D02*
X118119047Y-72480714D01*
X117880952Y-72147380D02*
X117880952Y-73004523D01*
X117928571Y-73099761D01*
X118023809Y-73147380D01*
X118119047Y-73147380D01*
X118452380Y-73147380D02*
X118452380Y-72480714D01*
X118452380Y-72147380D02*
X118404761Y-72195000D01*
X118452380Y-72242619D01*
X118500000Y-72195000D01*
X118452380Y-72147380D01*
X118452380Y-72242619D01*
X119071428Y-73147380D02*
X118976190Y-73099761D01*
X118928571Y-73052142D01*
X118880952Y-72956904D01*
X118880952Y-72671190D01*
X118928571Y-72575952D01*
X118976190Y-72528333D01*
X119071428Y-72480714D01*
X119214285Y-72480714D01*
X119309523Y-72528333D01*
X119357142Y-72575952D01*
X119404761Y-72671190D01*
X119404761Y-72956904D01*
X119357142Y-73052142D01*
X119309523Y-73099761D01*
X119214285Y-73147380D01*
X119071428Y-73147380D01*
X119833333Y-72480714D02*
X119833333Y-73147380D01*
X119833333Y-72575952D02*
X119880952Y-72528333D01*
X119976190Y-72480714D01*
X120119047Y-72480714D01*
X120214285Y-72528333D01*
X120261904Y-72623571D01*
X120261904Y-73147380D01*
X120500000Y-73242619D02*
X121261904Y-73242619D01*
X121452380Y-73099761D02*
X121595238Y-73147380D01*
X121833333Y-73147380D01*
X121928571Y-73099761D01*
X121976190Y-73052142D01*
X122023809Y-72956904D01*
X122023809Y-72861666D01*
X121976190Y-72766428D01*
X121928571Y-72718809D01*
X121833333Y-72671190D01*
X121642857Y-72623571D01*
X121547619Y-72575952D01*
X121500000Y-72528333D01*
X121452380Y-72433095D01*
X121452380Y-72337857D01*
X121500000Y-72242619D01*
X121547619Y-72195000D01*
X121642857Y-72147380D01*
X121880952Y-72147380D01*
X122023809Y-72195000D01*
X122595238Y-72575952D02*
X122500000Y-72528333D01*
X122452380Y-72480714D01*
X122404761Y-72385476D01*
X122404761Y-72337857D01*
X122452380Y-72242619D01*
X122500000Y-72195000D01*
X122595238Y-72147380D01*
X122785714Y-72147380D01*
X122880952Y-72195000D01*
X122928571Y-72242619D01*
X122976190Y-72337857D01*
X122976190Y-72385476D01*
X122928571Y-72480714D01*
X122880952Y-72528333D01*
X122785714Y-72575952D01*
X122595238Y-72575952D01*
X122500000Y-72623571D01*
X122452380Y-72671190D01*
X122404761Y-72766428D01*
X122404761Y-72956904D01*
X122452380Y-73052142D01*
X122500000Y-73099761D01*
X122595238Y-73147380D01*
X122785714Y-73147380D01*
X122880952Y-73099761D01*
X122928571Y-73052142D01*
X122976190Y-72956904D01*
X122976190Y-72766428D01*
X122928571Y-72671190D01*
X122880952Y-72623571D01*
X122785714Y-72575952D01*
X123357142Y-72242619D02*
X123404761Y-72195000D01*
X123500000Y-72147380D01*
X123738095Y-72147380D01*
X123833333Y-72195000D01*
X123880952Y-72242619D01*
X123928571Y-72337857D01*
X123928571Y-72433095D01*
X123880952Y-72575952D01*
X123309523Y-73147380D01*
X123928571Y-73147380D01*
X124357142Y-73147380D02*
X124357142Y-72147380D01*
X124690476Y-72861666D01*
X125023809Y-72147380D01*
X125023809Y-73147380D01*
X126023809Y-73147380D02*
X125452380Y-73147380D01*
X125738095Y-73147380D02*
X125738095Y-72147380D01*
X125642857Y-72290238D01*
X125547619Y-72385476D01*
X125452380Y-72433095D01*
X126404761Y-72861666D02*
X126880952Y-72861666D01*
X126309523Y-73147380D02*
X126642857Y-72147380D01*
X126976190Y-73147380D01*
X113666666Y-74090714D02*
X113904761Y-74757380D01*
X114142857Y-74090714D01*
X114523809Y-74662142D02*
X114571428Y-74709761D01*
X114523809Y-74757380D01*
X114476190Y-74709761D01*
X114523809Y-74662142D01*
X114523809Y-74757380D01*
X115190476Y-73757380D02*
X115285714Y-73757380D01*
X115380952Y-73805000D01*
X115428571Y-73852619D01*
X115476190Y-73947857D01*
X115523809Y-74138333D01*
X115523809Y-74376428D01*
X115476190Y-74566904D01*
X115428571Y-74662142D01*
X115380952Y-74709761D01*
X115285714Y-74757380D01*
X115190476Y-74757380D01*
X115095238Y-74709761D01*
X115047619Y-74662142D01*
X115000000Y-74566904D01*
X114952380Y-74376428D01*
X114952380Y-74138333D01*
X115000000Y-73947857D01*
X115047619Y-73852619D01*
X115095238Y-73805000D01*
X115190476Y-73757380D01*
X115952380Y-74662142D02*
X116000000Y-74709761D01*
X115952380Y-74757380D01*
X115904761Y-74709761D01*
X115952380Y-74662142D01*
X115952380Y-74757380D01*
X116952380Y-74757380D02*
X116380952Y-74757380D01*
X116666666Y-74757380D02*
X116666666Y-73757380D01*
X116571428Y-73900238D01*
X116476190Y-73995476D01*
X116380952Y-74043095D01*
X118476190Y-74233571D02*
X118619047Y-74281190D01*
X118666666Y-74328809D01*
X118714285Y-74424047D01*
X118714285Y-74566904D01*
X118666666Y-74662142D01*
X118619047Y-74709761D01*
X118523809Y-74757380D01*
X118142857Y-74757380D01*
X118142857Y-73757380D01*
X118476190Y-73757380D01*
X118571428Y-73805000D01*
X118619047Y-73852619D01*
X118666666Y-73947857D01*
X118666666Y-74043095D01*
X118619047Y-74138333D01*
X118571428Y-74185952D01*
X118476190Y-74233571D01*
X118142857Y-74233571D01*
X119047619Y-74090714D02*
X119285714Y-74757380D01*
X119523809Y-74090714D02*
X119285714Y-74757380D01*
X119190476Y-74995476D01*
X119142857Y-75043095D01*
X119047619Y-75090714D01*
X120666666Y-74757380D02*
X120666666Y-73757380D01*
X121238095Y-74757380D01*
X121238095Y-73757380D01*
X121857142Y-74757380D02*
X121761904Y-74709761D01*
X121714285Y-74662142D01*
X121666666Y-74566904D01*
X121666666Y-74281190D01*
X121714285Y-74185952D01*
X121761904Y-74138333D01*
X121857142Y-74090714D01*
X122000000Y-74090714D01*
X122095238Y-74138333D01*
X122142857Y-74185952D01*
X122190476Y-74281190D01*
X122190476Y-74566904D01*
X122142857Y-74662142D01*
X122095238Y-74709761D01*
X122000000Y-74757380D01*
X121857142Y-74757380D01*
X122619047Y-74757380D02*
X122619047Y-74090714D01*
X122619047Y-74281190D02*
X122666666Y-74185952D01*
X122714285Y-74138333D01*
X122809523Y-74090714D01*
X122904761Y-74090714D01*
X123238095Y-74757380D02*
X123238095Y-74090714D01*
X123238095Y-73757380D02*
X123190476Y-73805000D01*
X123238095Y-73852619D01*
X123285714Y-73805000D01*
X123238095Y-73757380D01*
X123238095Y-73852619D01*
X140095238Y-71071428D02*
X140857142Y-71071428D01*
X140476190Y-71452380D02*
X140476190Y-70690476D01*
X141904761Y-71357142D02*
X141857142Y-71404761D01*
X141714285Y-71452380D01*
X141619047Y-71452380D01*
X141476190Y-71404761D01*
X141380952Y-71309523D01*
X141333333Y-71214285D01*
X141285714Y-71023809D01*
X141285714Y-70880952D01*
X141333333Y-70690476D01*
X141380952Y-70595238D01*
X141476190Y-70500000D01*
X141619047Y-70452380D01*
X141714285Y-70452380D01*
X141857142Y-70500000D01*
X141904761Y-70547619D01*
X143047619Y-70404761D02*
X142190476Y-71690476D01*
X143380952Y-71452380D02*
X143380952Y-70452380D01*
X143619047Y-70452380D01*
X143761904Y-70500000D01*
X143857142Y-70595238D01*
X143904761Y-70690476D01*
X143952380Y-70880952D01*
X143952380Y-71023809D01*
X143904761Y-71214285D01*
X143857142Y-71309523D01*
X143761904Y-71404761D01*
X143619047Y-71452380D01*
X143380952Y-71452380D01*
X145595238Y-71071428D02*
X146357142Y-71071428D01*
X147404761Y-71357142D02*
X147357142Y-71404761D01*
X147214285Y-71452380D01*
X147119047Y-71452380D01*
X146976190Y-71404761D01*
X146880952Y-71309523D01*
X146833333Y-71214285D01*
X146785714Y-71023809D01*
X146785714Y-70880952D01*
X146833333Y-70690476D01*
X146880952Y-70595238D01*
X146976190Y-70500000D01*
X147119047Y-70452380D01*
X147214285Y-70452380D01*
X147357142Y-70500000D01*
X147404761Y-70547619D01*
X148547619Y-70404761D02*
X147690476Y-71690476D01*
X148880952Y-71452380D02*
X148880952Y-70452380D01*
X149119047Y-70452380D01*
X149261904Y-70500000D01*
X149357142Y-70595238D01*
X149404761Y-70690476D01*
X149452380Y-70880952D01*
X149452380Y-71023809D01*
X149404761Y-71214285D01*
X149357142Y-71309523D01*
X149261904Y-71404761D01*
X149119047Y-71452380D01*
X148880952Y-71452380D01*
X100428571Y-105071428D02*
X101190476Y-105071428D01*
X100809523Y-105452380D02*
X100809523Y-104690476D01*
X102000000Y-104928571D02*
X102142857Y-104976190D01*
X102190476Y-105023809D01*
X102238095Y-105119047D01*
X102238095Y-105261904D01*
X102190476Y-105357142D01*
X102142857Y-105404761D01*
X102047619Y-105452380D01*
X101666666Y-105452380D01*
X101666666Y-104452380D01*
X102000000Y-104452380D01*
X102095238Y-104500000D01*
X102142857Y-104547619D01*
X102190476Y-104642857D01*
X102190476Y-104738095D01*
X102142857Y-104833333D01*
X102095238Y-104880952D01*
X102000000Y-104928571D01*
X101666666Y-104928571D01*
X102619047Y-105166666D02*
X103095238Y-105166666D01*
X102523809Y-105452380D02*
X102857142Y-104452380D01*
X103190476Y-105452380D01*
X103380952Y-104452380D02*
X103952380Y-104452380D01*
X103666666Y-105452380D02*
X103666666Y-104452380D01*
X104142857Y-104452380D02*
X104714285Y-104452380D01*
X104428571Y-105452380D02*
X104428571Y-104452380D01*
X185428571Y-105071428D02*
X186190476Y-105071428D01*
X187000000Y-104928571D02*
X187142857Y-104976190D01*
X187190476Y-105023809D01*
X187238095Y-105119047D01*
X187238095Y-105261904D01*
X187190476Y-105357142D01*
X187142857Y-105404761D01*
X187047619Y-105452380D01*
X186666666Y-105452380D01*
X186666666Y-104452380D01*
X187000000Y-104452380D01*
X187095238Y-104500000D01*
X187142857Y-104547619D01*
X187190476Y-104642857D01*
X187190476Y-104738095D01*
X187142857Y-104833333D01*
X187095238Y-104880952D01*
X187000000Y-104928571D01*
X186666666Y-104928571D01*
X187619047Y-105166666D02*
X188095238Y-105166666D01*
X187523809Y-105452380D02*
X187857142Y-104452380D01*
X188190476Y-105452380D01*
X188380952Y-104452380D02*
X188952380Y-104452380D01*
X188666666Y-105452380D02*
X188666666Y-104452380D01*
X189142857Y-104452380D02*
X189714285Y-104452380D01*
X189428571Y-105452380D02*
X189428571Y-104452380D01*
%TO.C,U1*%
X152738095Y-81352380D02*
X152738095Y-82161904D01*
X152785714Y-82257142D01*
X152833333Y-82304761D01*
X152928571Y-82352380D01*
X153119047Y-82352380D01*
X153214285Y-82304761D01*
X153261904Y-82257142D01*
X153309523Y-82161904D01*
X153309523Y-81352380D01*
X154309523Y-82352380D02*
X153738095Y-82352380D01*
X154023809Y-82352380D02*
X154023809Y-81352380D01*
X153928571Y-81495238D01*
X153833333Y-81590476D01*
X153738095Y-81638095D01*
%TO.C,R2*%
X154982380Y-86066666D02*
X154506190Y-86400000D01*
X154982380Y-86638095D02*
X153982380Y-86638095D01*
X153982380Y-86257142D01*
X154030000Y-86161904D01*
X154077619Y-86114285D01*
X154172857Y-86066666D01*
X154315714Y-86066666D01*
X154410952Y-86114285D01*
X154458571Y-86161904D01*
X154506190Y-86257142D01*
X154506190Y-86638095D01*
X154077619Y-85685714D02*
X154030000Y-85638095D01*
X153982380Y-85542857D01*
X153982380Y-85304761D01*
X154030000Y-85209523D01*
X154077619Y-85161904D01*
X154172857Y-85114285D01*
X154268095Y-85114285D01*
X154410952Y-85161904D01*
X154982380Y-85733333D01*
X154982380Y-85114285D01*
%TO.C,Q1*%
X166447619Y-75095238D02*
X166400000Y-75190476D01*
X166304761Y-75285714D01*
X166161904Y-75428571D01*
X166114285Y-75523809D01*
X166114285Y-75619047D01*
X166352380Y-75571428D02*
X166304761Y-75666666D01*
X166209523Y-75761904D01*
X166019047Y-75809523D01*
X165685714Y-75809523D01*
X165495238Y-75761904D01*
X165400000Y-75666666D01*
X165352380Y-75571428D01*
X165352380Y-75380952D01*
X165400000Y-75285714D01*
X165495238Y-75190476D01*
X165685714Y-75142857D01*
X166019047Y-75142857D01*
X166209523Y-75190476D01*
X166304761Y-75285714D01*
X166352380Y-75380952D01*
X166352380Y-75571428D01*
X166352380Y-74190476D02*
X166352380Y-74761904D01*
X166352380Y-74476190D02*
X165352380Y-74476190D01*
X165495238Y-74571428D01*
X165590476Y-74666666D01*
X165638095Y-74761904D01*
%TO.C,BT1*%
X144526635Y-90628571D02*
X144669492Y-90676190D01*
X144717111Y-90723809D01*
X144764730Y-90819047D01*
X144764730Y-90961904D01*
X144717111Y-91057142D01*
X144669492Y-91104761D01*
X144574254Y-91152380D01*
X144193302Y-91152380D01*
X144193302Y-90152380D01*
X144526635Y-90152380D01*
X144621873Y-90200000D01*
X144669492Y-90247619D01*
X144717111Y-90342857D01*
X144717111Y-90438095D01*
X144669492Y-90533333D01*
X144621873Y-90580952D01*
X144526635Y-90628571D01*
X144193302Y-90628571D01*
X145050445Y-90152380D02*
X145621873Y-90152380D01*
X145336159Y-91152380D02*
X145336159Y-90152380D01*
X146479016Y-91152380D02*
X145907588Y-91152380D01*
X146193302Y-91152380D02*
X146193302Y-90152380D01*
X146098064Y-90295238D01*
X146002826Y-90390476D01*
X145907588Y-90438095D01*
X184412350Y-101652380D02*
X184412350Y-101890476D01*
X184174254Y-101795238D02*
X184412350Y-101890476D01*
X184650445Y-101795238D01*
X184269492Y-102080952D02*
X184412350Y-101890476D01*
X184555207Y-102080952D01*
%TO.C,TP4*%
X146238095Y-66804380D02*
X146809523Y-66804380D01*
X146523809Y-67804380D02*
X146523809Y-66804380D01*
X147142857Y-67804380D02*
X147142857Y-66804380D01*
X147523809Y-66804380D01*
X147619047Y-66852000D01*
X147666666Y-66899619D01*
X147714285Y-66994857D01*
X147714285Y-67137714D01*
X147666666Y-67232952D01*
X147619047Y-67280571D01*
X147523809Y-67328190D01*
X147142857Y-67328190D01*
X148571428Y-67137714D02*
X148571428Y-67804380D01*
X148333333Y-66756761D02*
X148095238Y-67471047D01*
X148714285Y-67471047D01*
%TO.C,C1*%
X150333333Y-86787142D02*
X150285714Y-86834761D01*
X150142857Y-86882380D01*
X150047619Y-86882380D01*
X149904761Y-86834761D01*
X149809523Y-86739523D01*
X149761904Y-86644285D01*
X149714285Y-86453809D01*
X149714285Y-86310952D01*
X149761904Y-86120476D01*
X149809523Y-86025238D01*
X149904761Y-85930000D01*
X150047619Y-85882380D01*
X150142857Y-85882380D01*
X150285714Y-85930000D01*
X150333333Y-85977619D01*
X151285714Y-86882380D02*
X150714285Y-86882380D01*
X151000000Y-86882380D02*
X151000000Y-85882380D01*
X150904761Y-86025238D01*
X150809523Y-86120476D01*
X150714285Y-86168095D01*
%TO.C,TP2*%
X190238095Y-101452380D02*
X190809523Y-101452380D01*
X190523809Y-102452380D02*
X190523809Y-101452380D01*
X191142857Y-102452380D02*
X191142857Y-101452380D01*
X191523809Y-101452380D01*
X191619047Y-101500000D01*
X191666666Y-101547619D01*
X191714285Y-101642857D01*
X191714285Y-101785714D01*
X191666666Y-101880952D01*
X191619047Y-101928571D01*
X191523809Y-101976190D01*
X191142857Y-101976190D01*
X192095238Y-101547619D02*
X192142857Y-101500000D01*
X192238095Y-101452380D01*
X192476190Y-101452380D01*
X192571428Y-101500000D01*
X192619047Y-101547619D01*
X192666666Y-101642857D01*
X192666666Y-101738095D01*
X192619047Y-101880952D01*
X192047619Y-102452380D01*
X192666666Y-102452380D01*
%TO.C,TP3*%
X141238095Y-66804380D02*
X141809523Y-66804380D01*
X141523809Y-67804380D02*
X141523809Y-66804380D01*
X142142857Y-67804380D02*
X142142857Y-66804380D01*
X142523809Y-66804380D01*
X142619047Y-66852000D01*
X142666666Y-66899619D01*
X142714285Y-66994857D01*
X142714285Y-67137714D01*
X142666666Y-67232952D01*
X142619047Y-67280571D01*
X142523809Y-67328190D01*
X142142857Y-67328190D01*
X143047619Y-66804380D02*
X143666666Y-66804380D01*
X143333333Y-67185333D01*
X143476190Y-67185333D01*
X143571428Y-67232952D01*
X143619047Y-67280571D01*
X143666666Y-67375809D01*
X143666666Y-67613904D01*
X143619047Y-67709142D01*
X143571428Y-67756761D01*
X143476190Y-67804380D01*
X143190476Y-67804380D01*
X143095238Y-67756761D01*
X143047619Y-67709142D01*
%TO.C,R3*%
X191232380Y-91166666D02*
X190756190Y-91500000D01*
X191232380Y-91738095D02*
X190232380Y-91738095D01*
X190232380Y-91357142D01*
X190280000Y-91261904D01*
X190327619Y-91214285D01*
X190422857Y-91166666D01*
X190565714Y-91166666D01*
X190660952Y-91214285D01*
X190708571Y-91261904D01*
X190756190Y-91357142D01*
X190756190Y-91738095D01*
X190232380Y-90833333D02*
X190232380Y-90214285D01*
X190613333Y-90547619D01*
X190613333Y-90404761D01*
X190660952Y-90309523D01*
X190708571Y-90261904D01*
X190803809Y-90214285D01*
X191041904Y-90214285D01*
X191137142Y-90261904D01*
X191184761Y-90309523D01*
X191232380Y-90404761D01*
X191232380Y-90690476D01*
X191184761Y-90785714D01*
X191137142Y-90833333D01*
%TO.C,R1*%
X147333333Y-82882380D02*
X147000000Y-82406190D01*
X146761904Y-82882380D02*
X146761904Y-81882380D01*
X147142857Y-81882380D01*
X147238095Y-81930000D01*
X147285714Y-81977619D01*
X147333333Y-82072857D01*
X147333333Y-82215714D01*
X147285714Y-82310952D01*
X147238095Y-82358571D01*
X147142857Y-82406190D01*
X146761904Y-82406190D01*
X148285714Y-82882380D02*
X147714285Y-82882380D01*
X148000000Y-82882380D02*
X148000000Y-81882380D01*
X147904761Y-82025238D01*
X147809523Y-82120476D01*
X147714285Y-82168095D01*
%TO.C,TP1*%
X97238095Y-101452380D02*
X97809523Y-101452380D01*
X97523809Y-102452380D02*
X97523809Y-101452380D01*
X98142857Y-102452380D02*
X98142857Y-101452380D01*
X98523809Y-101452380D01*
X98619047Y-101500000D01*
X98666666Y-101547619D01*
X98714285Y-101642857D01*
X98714285Y-101785714D01*
X98666666Y-101880952D01*
X98619047Y-101928571D01*
X98523809Y-101976190D01*
X98142857Y-101976190D01*
X99666666Y-102452380D02*
X99095238Y-102452380D01*
X99380952Y-102452380D02*
X99380952Y-101452380D01*
X99285714Y-101595238D01*
X99190476Y-101690476D01*
X99095238Y-101738095D01*
D11*
%TO.C,U1*%
X150200000Y-81100000D02*
X150200000Y-82700000D01*
X151800000Y-80600000D02*
X151800000Y-82700000D01*
%TO.C,R2*%
X153622500Y-85645276D02*
X153622500Y-86154724D01*
X152577500Y-85645276D02*
X152577500Y-86154724D01*
%TO.C,Q1*%
X165060000Y-75000000D02*
X165060000Y-76950000D01*
X159940000Y-75000000D02*
X159940000Y-76950000D01*
X165060000Y-75000000D02*
X165060000Y-71550000D01*
X159940000Y-75000000D02*
X159940000Y-73050000D01*
%TO.C,BT1*%
X106195050Y-91747900D02*
X106195050Y-112906100D01*
X106195050Y-112906100D02*
X183766650Y-112906100D01*
X183766650Y-91747900D02*
X106195050Y-91747900D01*
X183766650Y-112906100D02*
X183766650Y-91747900D01*
X105941050Y-102200000D02*
G75*
G03*
X105941050Y-102200000I-381000J0D01*
G01*
%TO.C,TP4*%
X146550000Y-69950000D02*
X146550000Y-68050000D01*
X146550000Y-68050000D02*
X148450000Y-68050000D01*
X148450000Y-68050000D02*
X148450000Y-69950000D01*
X148450000Y-69950000D02*
X146550000Y-69950000D01*
%TO.C,C1*%
X150646267Y-84490000D02*
X150353733Y-84490000D01*
X150646267Y-85510000D02*
X150353733Y-85510000D01*
%TO.C,TP2*%
X189450000Y-102950000D02*
X187550000Y-102950000D01*
X187550000Y-102950000D02*
X187550000Y-101050000D01*
X189450000Y-101050000D02*
X189450000Y-102950000D01*
X187550000Y-101050000D02*
X189450000Y-101050000D01*
%TO.C,TP3*%
X141550000Y-68050000D02*
X143450000Y-68050000D01*
X141550000Y-69950000D02*
X141550000Y-68050000D01*
X143450000Y-68050000D02*
X143450000Y-69950000D01*
X143450000Y-69950000D02*
X141550000Y-69950000D01*
%TO.C,R3*%
X187145000Y-90276263D02*
X187145000Y-91723737D01*
X189855000Y-90276263D02*
X189855000Y-91723737D01*
%TO.C,R1*%
X147754724Y-81522500D02*
X147245276Y-81522500D01*
X147754724Y-80477500D02*
X147245276Y-80477500D01*
%TO.C,TP1*%
X102550000Y-102950000D02*
X100650000Y-102950000D01*
X100650000Y-102950000D02*
X100650000Y-101050000D01*
X102550000Y-101050000D02*
X102550000Y-102950000D01*
X100650000Y-101050000D02*
X102550000Y-101050000D01*
%TD*%
M02*
