%TF.GenerationSoftware,KiCad,Pcbnew,(6.0.7)*%
%TF.CreationDate,2022-08-26T02:07:21+09:00*%
%TF.ProjectId,CellProtection_S82M1A,43656c6c-5072-46f7-9465-6374696f6e5f,rev?*%
%TF.SameCoordinates,Original*%
%TF.FileFunction,Copper,L1,Top*%
%TF.FilePolarity,Positive*%
%FSLAX46Y46*%
G04 Gerber Fmt 4.6, Leading zero omitted, Abs format (unit mm)*
G04 Created by KiCad (PCBNEW (6.0.7)) date 2022-08-26 02:07:21*
%MOMM*%
%LPD*%
G01*
G04 APERTURE LIST*
G04 Aperture macros list*
%AMRoundRect*
0 Rectangle with rounded corners*
0 $1 Rounding radius*
0 $2 $3 $4 $5 $6 $7 $8 $9 X,Y pos of 4 corners*
0 Add a 4 corners polygon primitive as box body*
4,1,4,$2,$3,$4,$5,$6,$7,$8,$9,$2,$3,0*
0 Add four circle primitives for the rounded corners*
1,1,$1+$1,$2,$3*
1,1,$1+$1,$4,$5*
1,1,$1+$1,$6,$7*
1,1,$1+$1,$8,$9*
0 Add four rect primitives between the rounded corners*
20,1,$1+$1,$2,$3,$4,$5,0*
20,1,$1+$1,$4,$5,$6,$7,0*
20,1,$1+$1,$6,$7,$8,$9,0*
20,1,$1+$1,$8,$9,$2,$3,0*%
G04 Aperture macros list end*
%TA.AperFunction,SMDPad,CuDef*%
%ADD10R,0.300000X0.660000*%
%TD*%
%TA.AperFunction,SMDPad,CuDef*%
%ADD11R,0.300000X0.680000*%
%TD*%
%TA.AperFunction,SMDPad,CuDef*%
%ADD12RoundRect,0.237500X-0.237500X0.250000X-0.237500X-0.250000X0.237500X-0.250000X0.237500X0.250000X0*%
%TD*%
%TA.AperFunction,SMDPad,CuDef*%
%ADD13RoundRect,0.150000X-0.150000X0.825000X-0.150000X-0.825000X0.150000X-0.825000X0.150000X0.825000X0*%
%TD*%
%TA.AperFunction,ComponentPad*%
%ADD14C,2.082800*%
%TD*%
%TA.AperFunction,ComponentPad*%
%ADD15R,1.500000X1.500000*%
%TD*%
%TA.AperFunction,SMDPad,CuDef*%
%ADD16RoundRect,0.237500X0.300000X0.237500X-0.300000X0.237500X-0.300000X-0.237500X0.300000X-0.237500X0*%
%TD*%
%TA.AperFunction,SMDPad,CuDef*%
%ADD17RoundRect,0.250000X-1.075000X0.400000X-1.075000X-0.400000X1.075000X-0.400000X1.075000X0.400000X0*%
%TD*%
%TA.AperFunction,SMDPad,CuDef*%
%ADD18RoundRect,0.237500X0.250000X0.237500X-0.250000X0.237500X-0.250000X-0.237500X0.250000X-0.237500X0*%
%TD*%
%TA.AperFunction,ViaPad*%
%ADD19C,0.600000*%
%TD*%
%TA.AperFunction,Conductor*%
%ADD20C,3.000000*%
%TD*%
%TA.AperFunction,Conductor*%
%ADD21C,0.200000*%
%TD*%
%TA.AperFunction,Conductor*%
%ADD22C,1.500000*%
%TD*%
G04 APERTURE END LIST*
D10*
%TO.P,U1,1,VINI*%
%TO.N,Net-(Q1-Pad1)*%
X151500000Y-80930000D03*
%TO.P,U1,2,CO*%
%TO.N,Net-(Q1-Pad4)*%
X151000000Y-80930000D03*
%TO.P,U1,3,DO*%
%TO.N,Net-(Q1-Pad2)*%
X150500000Y-80930000D03*
D11*
%TO.P,U1,4,VSS*%
%TO.N,Net-(BT1-Pad2)*%
X150500000Y-82960000D03*
%TO.P,U1,5,VDD*%
%TO.N,Net-(C1-Pad1)*%
X151000000Y-82960000D03*
%TO.P,U1,6,VM*%
%TO.N,Net-(R2-Pad1)*%
X151500000Y-82960000D03*
%TD*%
D12*
%TO.P,R2,1*%
%TO.N,Net-(R2-Pad1)*%
X153100000Y-84987500D03*
%TO.P,R2,2*%
%TO.N,Net-(Q1-Pad3)*%
X153100000Y-86812500D03*
%TD*%
D13*
%TO.P,Q1,1,S1*%
%TO.N,Net-(Q1-Pad1)*%
X164405000Y-72525000D03*
%TO.P,Q1,2,G1*%
%TO.N,Net-(Q1-Pad2)*%
X163135000Y-72525000D03*
%TO.P,Q1,3,S2*%
%TO.N,Net-(Q1-Pad3)*%
X161865000Y-72525000D03*
%TO.P,Q1,4,G2*%
%TO.N,Net-(Q1-Pad4)*%
X160595000Y-72525000D03*
%TO.P,Q1,5,D2*%
%TO.N,Net-(Q1-Pad5)*%
X160595000Y-77475000D03*
%TO.P,Q1,6,D2*%
X161865000Y-77475000D03*
%TO.P,Q1,7,D1*%
X163135000Y-77475000D03*
%TO.P,Q1,8,D1*%
X164405000Y-77475000D03*
%TD*%
D14*
%TO.P,BT1,1,+*%
%TO.N,Net-(BT1-Pad1)*%
X108849350Y-102200000D03*
%TO.P,BT1,2,-*%
%TO.N,Net-(BT1-Pad2)*%
X181112350Y-102200000D03*
%TD*%
D15*
%TO.P,TP4,1,1*%
%TO.N,Net-(Q1-Pad3)*%
X147500000Y-69000000D03*
%TD*%
D16*
%TO.P,C1,1*%
%TO.N,Net-(C1-Pad1)*%
X151362500Y-85000000D03*
%TO.P,C1,2*%
%TO.N,Net-(BT1-Pad2)*%
X149637500Y-85000000D03*
%TD*%
D15*
%TO.P,TP2,1,1*%
%TO.N,Net-(BT1-Pad2)*%
X188500000Y-102000000D03*
%TD*%
%TO.P,TP3,1,1*%
%TO.N,Net-(BT1-Pad1)*%
X142500000Y-69000000D03*
%TD*%
D17*
%TO.P,R3,1*%
%TO.N,Net-(Q1-Pad1)*%
X188500000Y-89450000D03*
%TO.P,R3,2*%
%TO.N,Net-(BT1-Pad2)*%
X188500000Y-92550000D03*
%TD*%
D18*
%TO.P,R1,1*%
%TO.N,Net-(C1-Pad1)*%
X148412500Y-81000000D03*
%TO.P,R1,2*%
%TO.N,Net-(BT1-Pad1)*%
X146587500Y-81000000D03*
%TD*%
D15*
%TO.P,TP1,1,1*%
%TO.N,Net-(BT1-Pad1)*%
X101600000Y-102000000D03*
%TD*%
D19*
%TO.N,Net-(Q1-Pad5)*%
X164500000Y-81000000D03*
X164500000Y-83000000D03*
X162500000Y-81000000D03*
X162500000Y-83000000D03*
X160500000Y-81000000D03*
X160500000Y-83000000D03*
X168500000Y-77000000D03*
X168500000Y-81000000D03*
X168500000Y-83000000D03*
X168500000Y-79000000D03*
X166500000Y-77000000D03*
X166500000Y-81000000D03*
X166500000Y-83000000D03*
X166500000Y-79000000D03*
X158500000Y-77000000D03*
X158500000Y-81000000D03*
X158500000Y-83000000D03*
X158500000Y-79000000D03*
X156500000Y-83000000D03*
X156500000Y-81000000D03*
X156500000Y-79000000D03*
X156500000Y-77000000D03*
%TD*%
D20*
%TO.N,Net-(BT1-Pad2)*%
X188500000Y-102000000D02*
X188500000Y-93000000D01*
%TO.N,Net-(Q1-Pad1)*%
X188500000Y-89000000D02*
X188500000Y-76000000D01*
X181500000Y-69000000D02*
X165500000Y-69000000D01*
X165500000Y-69000000D02*
X164700000Y-69800000D01*
X188500000Y-76000000D02*
X181500000Y-69000000D01*
D21*
%TO.N,Net-(BT1-Pad2)*%
X150637500Y-86000000D02*
X170782454Y-86000000D01*
X170782454Y-86000000D02*
X181112350Y-96329895D01*
X181112350Y-96329895D02*
X181112350Y-102200000D01*
X149637500Y-85000000D02*
X150637500Y-86000000D01*
%TO.N,Net-(Q1-Pad1)*%
X156181372Y-75300000D02*
X163800000Y-75300000D01*
X151500000Y-79981372D02*
X156181372Y-75300000D01*
X151500000Y-80930000D02*
X151500000Y-79981372D01*
X163800000Y-75300000D02*
X164405000Y-74695000D01*
X164405000Y-74695000D02*
X164405000Y-72525000D01*
%TO.N,Net-(Q1-Pad3)*%
X149312500Y-86812500D02*
X147500000Y-85000000D01*
X153100000Y-86812500D02*
X149312500Y-86812500D01*
%TO.N,Net-(R2-Pad1)*%
X151500000Y-83387500D02*
X153100000Y-84987500D01*
X151500000Y-82960000D02*
X151500000Y-83387500D01*
%TO.N,Net-(BT1-Pad1)*%
X142500000Y-76912500D02*
X142500000Y-69000000D01*
X146587500Y-81000000D02*
X142500000Y-76912500D01*
%TO.N,Net-(C1-Pad1)*%
X150630000Y-82000000D02*
X151000000Y-82370000D01*
X149412500Y-82000000D02*
X150630000Y-82000000D01*
X148412500Y-81000000D02*
X149412500Y-82000000D01*
X151000000Y-84637500D02*
X151362500Y-85000000D01*
X151000000Y-82960000D02*
X151000000Y-84637500D01*
%TO.N,Net-(BT1-Pad2)*%
X150500000Y-84137500D02*
X149637500Y-85000000D01*
X150500000Y-82960000D02*
X150500000Y-84137500D01*
%TO.N,Net-(Q1-Pad2)*%
X162200000Y-74900000D02*
X163135000Y-73965000D01*
X156015686Y-74900000D02*
X162200000Y-74900000D01*
X150500000Y-80415686D02*
X156015686Y-74900000D01*
X150500000Y-80930000D02*
X150500000Y-80415686D01*
X163135000Y-73965000D02*
X163135000Y-72525000D01*
%TO.N,Net-(Q1-Pad4)*%
X157825000Y-72525000D02*
X160595000Y-72525000D01*
X149700000Y-81200000D02*
X149700000Y-80650000D01*
X150910000Y-81600000D02*
X150100000Y-81600000D01*
X150100000Y-81600000D02*
X149700000Y-81200000D01*
X151000000Y-81510000D02*
X150910000Y-81600000D01*
X151000000Y-80930000D02*
X151000000Y-81510000D01*
X149700000Y-80650000D02*
X157825000Y-72525000D01*
D20*
%TO.N,Net-(BT1-Pad1)*%
X101800000Y-102200000D02*
X101600000Y-102000000D01*
X101600000Y-102000000D02*
X101600000Y-75900000D01*
X101600000Y-75900000D02*
X108500000Y-69000000D01*
X108849350Y-102200000D02*
X101800000Y-102200000D01*
X108500000Y-69000000D02*
X142500000Y-69000000D01*
%TO.N,Net-(BT1-Pad2)*%
X180400000Y-102200000D02*
X188300000Y-102200000D01*
X188300000Y-102200000D02*
X188500000Y-102000000D01*
D21*
%TO.N,Net-(C1-Pad1)*%
X151000000Y-82960000D02*
X151000000Y-82370000D01*
D22*
%TO.N,Net-(Q1-Pad1)*%
X164405000Y-70295000D02*
X164405000Y-73525000D01*
%TO.N,Net-(Q1-Pad3)*%
X161865000Y-73525000D02*
X161865000Y-70365000D01*
D21*
X147500000Y-69000000D02*
X147500000Y-85000000D01*
D20*
X160500000Y-69000000D02*
X161500000Y-70000000D01*
X147500000Y-69000000D02*
X160500000Y-69000000D01*
%TD*%
%TA.AperFunction,Conductor*%
%TO.N,Net-(Q1-Pad5)*%
G36*
X159928378Y-76020002D02*
G01*
X159974871Y-76073658D01*
X159984975Y-76143932D01*
X159955481Y-76208512D01*
X159949352Y-76215095D01*
X159926551Y-76237896D01*
X159916911Y-76250322D01*
X159840352Y-76379779D01*
X159834107Y-76394210D01*
X159791731Y-76540065D01*
X159789430Y-76552667D01*
X159787193Y-76581084D01*
X159787000Y-76586014D01*
X159787000Y-77202885D01*
X159791475Y-77218124D01*
X159792865Y-77219329D01*
X159800548Y-77221000D01*
X165194884Y-77221000D01*
X165210123Y-77216525D01*
X165211328Y-77215135D01*
X165212999Y-77207452D01*
X165212999Y-76586017D01*
X165212805Y-76581080D01*
X165210570Y-76552664D01*
X165208270Y-76540069D01*
X165165893Y-76394210D01*
X165159648Y-76379779D01*
X165083089Y-76250322D01*
X165073449Y-76237896D01*
X165050648Y-76215095D01*
X165016622Y-76152783D01*
X165021687Y-76081968D01*
X165064234Y-76025132D01*
X165130754Y-76000321D01*
X165139743Y-76000000D01*
X168493813Y-76000000D01*
X168506163Y-76000607D01*
X168682740Y-76017999D01*
X168706957Y-76022815D01*
X168870809Y-76072518D01*
X168893629Y-76081971D01*
X169044631Y-76162683D01*
X169065158Y-76176399D01*
X169197521Y-76285026D01*
X169214974Y-76302479D01*
X169323601Y-76434842D01*
X169337319Y-76455372D01*
X169418029Y-76606371D01*
X169427482Y-76629190D01*
X169477185Y-76793043D01*
X169482002Y-76817263D01*
X169499393Y-76993837D01*
X169500000Y-77006187D01*
X169500000Y-83593813D01*
X169499393Y-83606163D01*
X169482002Y-83782737D01*
X169477185Y-83806957D01*
X169427482Y-83970809D01*
X169418029Y-83993629D01*
X169337319Y-84144628D01*
X169323601Y-84165158D01*
X169214974Y-84297521D01*
X169197521Y-84314974D01*
X169065158Y-84423601D01*
X169044631Y-84437317D01*
X168952417Y-84486607D01*
X168893629Y-84518029D01*
X168870810Y-84527482D01*
X168706957Y-84577185D01*
X168682740Y-84582001D01*
X168506163Y-84599393D01*
X168493813Y-84600000D01*
X156906187Y-84600000D01*
X156893837Y-84599393D01*
X156717260Y-84582001D01*
X156693043Y-84577185D01*
X156529190Y-84527482D01*
X156506371Y-84518029D01*
X156447583Y-84486607D01*
X156355369Y-84437317D01*
X156334842Y-84423601D01*
X156202479Y-84314974D01*
X156185026Y-84297521D01*
X156076399Y-84165158D01*
X156062681Y-84144628D01*
X155981971Y-83993629D01*
X155972518Y-83970809D01*
X155922815Y-83806957D01*
X155917998Y-83782737D01*
X155900607Y-83606163D01*
X155900000Y-83593813D01*
X155900000Y-78363984D01*
X159787001Y-78363984D01*
X159787195Y-78368920D01*
X159789430Y-78397336D01*
X159791730Y-78409931D01*
X159834107Y-78555790D01*
X159840352Y-78570221D01*
X159916911Y-78699678D01*
X159926551Y-78712104D01*
X160032896Y-78818449D01*
X160045322Y-78828089D01*
X160174779Y-78904648D01*
X160189210Y-78910893D01*
X160323605Y-78949939D01*
X160337706Y-78949899D01*
X160341000Y-78942630D01*
X160341000Y-78936878D01*
X160849000Y-78936878D01*
X160852973Y-78950409D01*
X160860871Y-78951544D01*
X161000790Y-78910893D01*
X161015221Y-78904648D01*
X161144678Y-78828088D01*
X161152770Y-78821811D01*
X161218854Y-78795861D01*
X161288477Y-78809759D01*
X161307230Y-78821811D01*
X161315322Y-78828088D01*
X161444779Y-78904648D01*
X161459210Y-78910893D01*
X161593605Y-78949939D01*
X161607706Y-78949899D01*
X161611000Y-78942630D01*
X161611000Y-78936878D01*
X162119000Y-78936878D01*
X162122973Y-78950409D01*
X162130871Y-78951544D01*
X162270790Y-78910893D01*
X162285221Y-78904648D01*
X162414678Y-78828088D01*
X162422770Y-78821811D01*
X162488854Y-78795861D01*
X162558477Y-78809759D01*
X162577230Y-78821811D01*
X162585322Y-78828088D01*
X162714779Y-78904648D01*
X162729210Y-78910893D01*
X162863605Y-78949939D01*
X162877706Y-78949899D01*
X162881000Y-78942630D01*
X162881000Y-78936878D01*
X163389000Y-78936878D01*
X163392973Y-78950409D01*
X163400871Y-78951544D01*
X163540790Y-78910893D01*
X163555221Y-78904648D01*
X163684678Y-78828088D01*
X163692770Y-78821811D01*
X163758854Y-78795861D01*
X163828477Y-78809759D01*
X163847230Y-78821811D01*
X163855322Y-78828088D01*
X163984779Y-78904648D01*
X163999210Y-78910893D01*
X164133605Y-78949939D01*
X164147706Y-78949899D01*
X164151000Y-78942630D01*
X164151000Y-78936878D01*
X164659000Y-78936878D01*
X164662973Y-78950409D01*
X164670871Y-78951544D01*
X164810790Y-78910893D01*
X164825221Y-78904648D01*
X164954678Y-78828089D01*
X164967104Y-78818449D01*
X165073449Y-78712104D01*
X165083089Y-78699678D01*
X165159648Y-78570221D01*
X165165893Y-78555790D01*
X165208269Y-78409935D01*
X165210570Y-78397333D01*
X165212807Y-78368916D01*
X165213000Y-78363986D01*
X165213000Y-77747115D01*
X165208525Y-77731876D01*
X165207135Y-77730671D01*
X165199452Y-77729000D01*
X164677115Y-77729000D01*
X164661876Y-77733475D01*
X164660671Y-77734865D01*
X164659000Y-77742548D01*
X164659000Y-78936878D01*
X164151000Y-78936878D01*
X164151000Y-77747115D01*
X164146525Y-77731876D01*
X164145135Y-77730671D01*
X164137452Y-77729000D01*
X163407115Y-77729000D01*
X163391876Y-77733475D01*
X163390671Y-77734865D01*
X163389000Y-77742548D01*
X163389000Y-78936878D01*
X162881000Y-78936878D01*
X162881000Y-77747115D01*
X162876525Y-77731876D01*
X162875135Y-77730671D01*
X162867452Y-77729000D01*
X162137115Y-77729000D01*
X162121876Y-77733475D01*
X162120671Y-77734865D01*
X162119000Y-77742548D01*
X162119000Y-78936878D01*
X161611000Y-78936878D01*
X161611000Y-77747115D01*
X161606525Y-77731876D01*
X161605135Y-77730671D01*
X161597452Y-77729000D01*
X160867115Y-77729000D01*
X160851876Y-77733475D01*
X160850671Y-77734865D01*
X160849000Y-77742548D01*
X160849000Y-78936878D01*
X160341000Y-78936878D01*
X160341000Y-77747115D01*
X160336525Y-77731876D01*
X160335135Y-77730671D01*
X160327452Y-77729000D01*
X159805116Y-77729000D01*
X159789877Y-77733475D01*
X159788672Y-77734865D01*
X159787001Y-77742548D01*
X159787001Y-78363984D01*
X155900000Y-78363984D01*
X155900000Y-77006187D01*
X155900607Y-76993837D01*
X155917998Y-76817263D01*
X155922815Y-76793043D01*
X155972518Y-76629190D01*
X155981971Y-76606371D01*
X156062681Y-76455372D01*
X156076399Y-76434842D01*
X156185026Y-76302479D01*
X156202479Y-76285026D01*
X156334842Y-76176399D01*
X156355369Y-76162683D01*
X156506371Y-76081971D01*
X156529191Y-76072518D01*
X156693043Y-76022815D01*
X156717260Y-76017999D01*
X156893837Y-76000607D01*
X156906187Y-76000000D01*
X159860257Y-76000000D01*
X159928378Y-76020002D01*
G37*
%TD.AperFunction*%
%TD*%
M02*
